<?xml version="1.0" encoding="utf-8"?>
<svg xmlns="http://www.w3.org/2000/svg" viewBox="0 0 24 24" width="192" height="192">
  <circle cx="12" cy="12" r="8" opacity=".35" fill="#DC2626" />
  <path d="M14.562,13.431l-0.933-1.207c-0.28-0.362-0.451-0.798-0.492-1.254L12.8,7.2c0-0.442-0.358-0.8-0.8-0.8h0c-0.442,0-0.8,0.358-0.8,0.8l-0.305,3.908c-0.06,0.768,0.253,1.519,0.841,2.017l1.695,1.437c0.312,0.312,0.819,0.312,1.131,0l0,0C14.875,14.25,14.875,13.743,14.562,13.431z" fill="#DC2626" />
  <path d="M12,4c2.393,0,4.534,1.056,6,2.721V3c0-1.105-0.895-2-2-2H8C6.895,1,6,1.895,6,3v3.721C7.466,5.056,9.607,4,12,4z" fill="#DC2626" />
  <path d="M12,20c-2.393,0-4.534-1.056-6-2.721V21c0,1.105,0.895,2,2,2h8c1.105,0,2-0.895,2-2v-3.721C16.534,18.944,14.393,20,12,20z" fill="#DC2626" />
</svg>