<?xml version="1.0" encoding="utf-8"?>
<svg xmlns="http://www.w3.org/2000/svg" viewBox="0 0 24 24" width="192" height="192">
  <path d="M19,5H5C3.895,5,3,5.895,3,7v12c0,1.657,1.343,3,3,3h12c1.657,0,3-1.343,3-3V7C21,5.895,20.105,5,19,5z" opacity=".35" fill="#DC2626" />
  <circle cx="15.5" cy="9.5" r="1.5" fill="#DC2626" />
  <circle cx="8.5" cy="9.5" r="1.5" fill="#DC2626" />
  <path d="M5.347,5h6.49L9.439,2.579c-0.467-0.471-1.228-0.471-1.694,0L5.347,5z" fill="#DC2626" />
  <path d="M9.347,5H18l-3.706-3.741c-0.342-0.345-0.899-0.345-1.241,0L9.347,5z" fill="#DC2626" />
</svg>