<?xml version="1.0" encoding="utf-8"?>
<svg xmlns="http://www.w3.org/2000/svg" data-name="Слой 1" viewBox="0 0 24 24" width="192" height="192">
  <path d="M15.469,17H8.531a4.48,4.48,0,0,1-4.178-2.828L3.107,11.057A1.5,1.5,0,1,1,5.893,9.943l1.245,3.115A1.494,1.494,0,0,0,8.531,14h6.938a1.494,1.494,0,0,0,1.393-.943l1.245-3.114a1.5,1.5,0,1,1,2.786,1.114l-1.246,3.114A4.479,4.479,0,0,1,15.469,17Z" fill="#DC2626" />
  <rect width="8" height="3" x="8" y="19" rx="1.5" fill="#DC2626" />
  <rect width="2" height="5" x="11" y="14" opacity=".35" fill="#DC2626" />
  <path d="M8,2h8a3,3,0,0,1,3,3V15a0,0,0,0,1,0,0H5a0,0,0,0,1,0,0V5A3,3,0,0,1,8,2Z" opacity=".35" fill="#DC2626" />
</svg>