<?xml version="1.0" encoding="utf-8"?>
<svg xmlns="http://www.w3.org/2000/svg" viewBox="0 0 24 24" width="192" height="192">
  <rect width="12" height="8" x="6" y="10" fill="#DC2626" />
  <path d="M18,9v1H6V9c0-1.66,1.34-3,3-3h6C16.66,6,18,7.34,18,9z" opacity=".35" fill="#DC2626" />
  <path d="M6,18h12v1c0,1.66-1.34,3-3,3H9c-1.66,0-3-1.34-3-3V18z" opacity=".35" fill="#DC2626" />
  <path d="M16,2c0,0.55-0.45,1-1,1h-0.78C14.7,3.53,15,4.23,15,5v1H9V4c0-1.66,1.34-3,3-3h3C15.55,1,16,1.45,16,2z" fill="#DC2626" />
</svg>