<?xml version="1.0" encoding="utf-8"?>
<svg xmlns="http://www.w3.org/2000/svg" viewBox="0 0 24 24" width="192" height="192">
  <path d="M8.681,3.852l1.757,2.196c0.801,1.001,2.323,1.001,3.123,0l1.757-2.196c0.366-0.458,0.262-1.131-0.226-1.457l-1.26-0.84 C13.29,1.193,12.652,1,12,1h0c-0.652,0-1.29,0.193-1.832,0.555l-1.26,0.84C8.42,2.72,8.315,3.394,8.681,3.852z" fill="#DC2626" />
  <path d="M12,22c-4.411,0-8-3.589-8-8s3.589-8,8-8s8,3.589,8,8S16.411,22,12,22z M12,9c-2.757,0-5,2.243-5,5s2.243,5,5,5 s5-2.243,5-5S14.757,9,12,9z" opacity=".35" fill="#DC2626" />
</svg>