<?xml version="1.0" encoding="utf-8"?>
<svg xmlns="http://www.w3.org/2000/svg" viewBox="0 0 24 24" width="192" height="192">
  <path d="M12.464,6.536L14,5l1.828,1.828C16.579,7.579,17,8.596,17,9.657V19c0,1.105-0.895,2-2,2h-4V10.071C11,8.745,11.527,7.473,12.464,6.536z" fill="#DC2626" />
  <path d="M11,21H6c-1.105,0-2-0.895-2-2V9.657c0-1.061,0.421-2.078,1.172-2.828L7,5h7l-1.243,1.243C11.632,7.368,11,8.894,11,10.485V21z" opacity=".35" fill="#DC2626" />
  <path d="M14,5H7V4c0-0.552,0.448-1,1-1h5c0.552,0,1,0.448,1,1V5z" fill="#DC2626" />
  <path d="M8.043,19.414c-1.149,1.887-2.707,1.864-4.122,1.003c-1.415-0.861-2.151-2.235-1.003-4.122s3.747-3.573,5.162-2.711C9.495,14.445,9.191,17.527,8.043,19.414z" fill="#DC2626" />
  <path d="M20,21h-5V9h5c1.105,0,2,0.895,2,2v8C22,20.105,21.105,21,20,21z" opacity=".35" fill="#DC2626" />
</svg>