<?xml version="1.0" encoding="utf-8"?>
<svg xmlns="http://www.w3.org/2000/svg" viewBox="0 0 24 24" width="192" height="192">
  <path d="M16.586,3.586C16.211,3.211,15.702,3,15.172,3H8.828c-0.53,0-1.039,0.211-1.414,0.586L6,5v13c0,1.657,1.343,3,3,3h6c1.657,0,3-1.343,3-3V5L16.586,3.586z" opacity=".35" fill="#DC2626" />
  <path d="M9,3c0,1.657,1.343,3,3,3s3-1.343,3-3H9z" fill="#DC2626" />
  <path d="M19.788,6.788L18,5v7h1c1.105,0,2-0.895,2-2V9.714C21,8.617,20.564,7.564,19.788,6.788z" fill="#DC2626" />
  <path d="M4.212,6.788L6,5v7H5c-1.105,0-2-0.895-2-2V9.714C3,8.617,3.436,7.564,4.212,6.788z" fill="#DC2626" />
</svg>