<?xml version="1.0" encoding="utf-8"?>
<svg xmlns="http://www.w3.org/2000/svg" viewBox="0 0 24 24" width="192" height="192">
  <path d="M4,9L2,9v8.5l20,1v-2.401c0-2.383-1.682-4.435-4.019-4.903l-4.373-0.875C12.673,10.135,12,9.314,12,8.36V5.5 C12,4.119,10.881,3,9.5,3h0C8.119,3,7,4.119,7,5.5V6C7,7.657,5.657,9,4,9z" opacity=".35" fill="#DC2626" />
  <path d="M2,16v3c0,1.105,0.895,2,2,2h16c1.105,0,2-0.895,2-2v-1h-6.434c-2.362,0-4.708-0.381-6.949-1.128l0,0C6.884,16.295,5.068,16,3.241,16H2z" fill="#DC2626" />
  <path d="M2,9V8c0-1.105,0.895-2,2-2h3v1c0,1.105-0.895,2-2,2L2,9z" fill="#DC2626" />
  <path d="M14.001,13c0.19,0,0.383-0.054,0.554-0.168l2.678-1.785l-2.773-0.555l-1.014,0.676c-0.459,0.306-0.583,0.927-0.277,1.387C13.361,12.844,13.678,13,14.001,13z" fill="#DC2626" />
  <path d="M10.001,12c0.19,0,0.383-0.054,0.554-0.168l2.542-1.695c-0.629-0.32-1.052-0.952-1.088-1.678l-2.563,1.709c-0.459,0.306-0.583,0.927-0.277,1.387C9.361,11.844,9.678,12,10.001,12z" fill="#DC2626" />
</svg>