<?xml version="1.0" encoding="utf-8"?>
<svg xmlns="http://www.w3.org/2000/svg" viewBox="0 0 24 24" width="192" height="192">
  <path d="M19,11l-5-5H4l-4,5v4c0,2.209,1.791,4,4,4h17c1.657,0,3-1.343,3-3v-1.785c0-1.541-1.168-2.832-2.701-2.985L19,11z" opacity=".35" fill="#DC2626" />
  <circle cx="6.5" cy="18.5" r="2.5" fill="#DC2626" />
  <circle cx="18.5" cy="18.5" r="2.5" fill="#DC2626" />
  <path d="M15.891,6.336C15.334,5.501,14.398,5,13.395,5h-8.54C3.718,5,2.679,5.642,2.171,6.658L0,11h19L15.891,6.336z M12.5,10C11.672,10,11,9.328,11,8.5S11.672,7,12.5,7S14,7.672,14,8.5S13.328,10,12.5,10z M6.5,10C5.672,10,5,9.328,5,8.5S5.672,7,6.5,7S8,7.672,8,8.5S7.328,10,6.5,10z" fill="#DC2626" />
</svg>