<?xml version="1.0" encoding="utf-8"?>
<svg xmlns="http://www.w3.org/2000/svg" viewBox="0 0 24 24" width="192" height="192">
  <path d="M14,3.193V4c0,1.105-0.895,2-2,2h0c-1.105,0-2-0.895-2-2V3.193C10,2.534,9.466,2,8.807,2h0C8.32,2,7.881,2.297,7.7,2.75L6.9,4.751C6.336,6.159,6.503,7.754,7.344,9.015l0,0c0.397,0.596,0.397,1.373,0,1.969l0,0c-0.883,1.324-1.432,2.842-1.6,4.424l-0.58,5.45C5.077,21.461,5.544,22,6.153,22h11.694c0.609,0,1.076-0.539,0.99-1.141l-0.58-5.45c-0.169-1.582-0.718-3.1-1.6-4.424l0,0c-0.397-0.596-0.397-1.373,0-1.969l0,0c0.841-1.262,1.007-2.857,0.444-4.264L16.3,2.75C16.119,2.297,15.68,2,15.193,2h0C14.534,2,14,2.534,14,3.193z" opacity=".35" fill="#DC2626" />
  <path d="M16.656,10.985c-0.397-0.596-0.397-1.373,0-1.969C16.66,9.01,16.662,9.005,16.665,9h-9.33C7.338,9.005,7.34,9.01,7.344,9.015c0.397,0.596,0.397,1.373,0,1.969C7.125,11.312,6.928,11.651,6.752,12h10.496C17.072,11.651,16.875,11.312,16.656,10.985z" fill="#DC2626" />
</svg>