<?xml version="1.0" encoding="utf-8"?>
<svg xmlns="http://www.w3.org/2000/svg" viewBox="0 0 24 24" width="192" height="192">
  <path d="M15,12v8c0,1.66-1.34,3-3,3H7c-1.66,0-3-1.34-3-3v-8H15z" fill="#DC2626" />
  <path d="M8,7h3c0.552,0,1-0.448,1-1V3c0-0.552-0.448-1-1-1H8C7.448,2,7,2.448,7,3v3C7,6.552,7.448,7,8,7z" fill="#DC2626" />
  <path d="M15,12l-5.5,1L4,12l0,0c0-2.351,1.6-4.4,3.881-4.97L8,7h3l0.119,0.03C13.4,7.6,15,9.649,15,12L15,12z" opacity=".35" fill="#DC2626" />
  <circle cx="15.5" cy="4.5" r="1.5" opacity=".35" fill="#DC2626" />
  <circle cx="19.5" cy="1.5" r="1.5" opacity=".35" fill="#DC2626" />
  <circle cx="19.5" cy="7.5" r="1.5" opacity=".35" fill="#DC2626" />
</svg>